<svg width="22" height="22" viewBox="0 0 22 22" fill="none" xmlns="http://www.w3.org/2000/svg">
<path d="M11 21C16.5228 21 21 16.5228 21 11C21 5.47715 16.5228 1 11 1C5.47715 1 1 5.47715 1 11C1 16.5228 5.47715 21 11 21Z" stroke="#4C4036" stroke-width="1.5" stroke-linecap="round" stroke-linejoin="round"/>
<path d="M16.3684 9.63159C16.2631 9.42107 16.0526 9.21054 15.8421 9.21054L12.6842 8.89475L11.421 5.94738C11.3157 5.73686 11.1052 5.63159 10.8947 5.63159C10.6842 5.63159 10.4736 5.73686 10.3684 5.94738L9.10522 9.00001L5.94732 9.3158C5.73679 9.3158 5.52627 9.42107 5.52627 9.63159C5.421 9.84212 5.52627 10.1579 5.63153 10.2632L8.05258 12.3684L7.31574 15.5263C7.31574 15.7369 7.31574 15.9474 7.52627 16.1579C7.63153 16.2632 7.73679 16.2632 7.84206 16.2632C7.94732 16.2632 8.05258 16.2632 8.15785 16.1579L10.8947 14.4737L13.6315 16.1579C13.8421 16.2632 14.0526 16.2632 14.2631 16.1579C14.4736 16.0526 14.5789 15.7369 14.4736 15.5263L13.7368 12.3684L16.1578 10.2632C16.3684 10.1579 16.4736 9.84212 16.3684 9.63159Z" stroke="#4C4036" stroke-width="1.5" stroke-linecap="round" stroke-linejoin="round"/>
</svg>
