<svg width="22" height="22" viewBox="0 0 22 22" fill="none" xmlns="http://www.w3.org/2000/svg">
<path d="M18 15V21H4V15" stroke="#4C4036" stroke-width="1.25" stroke-linecap="round" stroke-linejoin="round"/>
<path d="M4 7V1H18V7" stroke="#4C4036" stroke-width="1.25" stroke-linecap="round" stroke-linejoin="round"/>
<path d="M21 7H1V15H21V7Z" stroke="#4C4036" stroke-width="1.25" stroke-linecap="round" stroke-linejoin="round"/>
<path d="M7 9V12C7 12.6 6.6 13 6 13C5.4 13 5 12.6 5 12V11.4" stroke="#4C4036" stroke-width="1.25" stroke-linecap="round" stroke-linejoin="round"/>
<path d="M8.8999 9V13" stroke="#4C4036" stroke-width="1.25" stroke-linecap="round" stroke-linejoin="round"/>
<path d="M10.2999 11H8.8999V9H10.2999C10.8999 9 11.2999 9.4 11.2999 10C11.2999 10.6 10.8999 11 10.2999 11Z" stroke="#4C4036" stroke-width="1.25" stroke-linecap="round" stroke-linejoin="round"/>
<path d="M15.9001 9.2C15.7001 9.1 15.4001 9 15.1001 9C14.0001 9 13.1001 9.9 13.1001 11C13.1001 12.1 14.0001 13 15.1001 13C16.2001 13 17.1001 12.1 17.1001 11H15.1001" stroke="#4C4036" stroke-width="1.25" stroke-linecap="round" stroke-linejoin="round"/>
</svg>
