<svg width="17" height="17" viewBox="0 0 17 17" fill="none" xmlns="http://www.w3.org/2000/svg">
<path d="M11.2998 12.0004V15.5005" stroke="#7FA483" stroke-width="1.00003" stroke-linecap="round" stroke-linejoin="round"/>
<path d="M14.4004 16.5005L11.3003 15.5005L8.2002 16.5005" stroke="#7FA483" stroke-width="1.00003" stroke-linecap="round" stroke-linejoin="round"/>
<path d="M3.7002 11.3003V16.5005" stroke="#7FA483" stroke-width="1.00003" stroke-linecap="round" stroke-linejoin="round"/>
<path d="M1.90039 16.5005V8.50024" stroke="#7FA483" stroke-width="1.00003" stroke-linecap="round" stroke-linejoin="round"/>
<path d="M1.90005 11.7003H1.20002C0.900013 11.7003 0.5 11.4003 0.5 11.0003V7.50016C0.5 6.50013 1.20002 5.40009 2.90008 5.40009H4.30012C5.30016 5.40009 7.30022 4.90008 8.50026 4.70007C9.00028 4.60007 9.20028 4.90008 9.20028 5.40009C9.20028 5.7001 9.10028 6.00011 8.90027 6.10011L5.40016 7.50016V16.5005" stroke="#7FA483" stroke-width="1.00003" stroke-linecap="round" stroke-linejoin="round"/>
<path d="M4.99892 2.20007C4.99892 1.50004 4.3989 0.900024 3.69887 0.900024C2.99885 0.900024 2.29883 1.50004 2.29883 2.20007V2.60008C2.29883 3.3001 2.89885 3.90012 3.69887 3.90012C4.4989 3.90012 5.09892 3.3001 5.09892 2.60008V2.20007H4.99892Z" stroke="#7FA483" stroke-width="1.00003" stroke-linecap="round" stroke-linejoin="round"/>
<path d="M6.7998 12.0004H16.5001V0.5H6.7998" stroke="#7FA483" stroke-width="1.00003" stroke-linecap="round" stroke-linejoin="round"/>
</svg>
